<svg xmlns="http://www.w3.org/2000/svg" viewBox="0 0 56 56"><path d="M47.91 47.496l6.484-3.242-17.638-6.498 6.498 17.638 3.242-6.484 6.797 6.797a.997.997 0 001.414 0 .999.999 0 000-1.414l-6.797-6.797zm-7.779-6.365l9.233 3.402-3.888 1.943-1.943 3.888-3.402-9.233zM28 14h18a1 1 0 100-2H28a1 1 0 100 2zm0 14h18a1 1 0 100-2H28a1 1 0 100 2zM21.579 7.241a.999.999 0 00-1.409.108l-6.248 7.288-3.822-2.866a.998.998 0 10-1.199 1.599l4.571 3.429a.995.995 0 001.359-.15l6.857-8a.997.997 0 00-.109-1.408zm0 14a.999.999 0 00-1.409.108l-6.248 7.288-3.822-2.866a.998.998 0 10-1.199 1.599l4.571 3.429a.995.995 0 001.359-.15l6.857-8a.997.997 0 00-.109-1.408zM20.17 36.35l-6.248 7.287-3.822-2.866a1 1 0 10-1.199 1.599l4.571 3.429a.995.995 0 001.359-.15l6.857-7.999a1 1 0 10-1.518-1.3z"/><path d="M42.824 0H13.176C6.462 0 1 5.462 1 12.176v29.648C1 48.538 6.462 54 13.176 54H33a1 1 0 100-2H13.176C7.564 52 3 47.436 3 41.824V12.176C3 6.564 7.564 2 13.176 2h29.648C48.436 2 53 6.564 53 12.176V37a1 1 0 102 0V12.176C55 5.462 49.538 0 42.824 0z"/></svg>