<svg xmlns="http://www.w3.org/2000/svg" width="400" height="400"><path d="M219.92 126.25h0c18.492 0 33.5 15.008 33.5 33.5v134" stroke-linecap="round" stroke="#2d3642" stroke-width="13.4" stroke-linejoin="round" fill="none"/><path fill="#e0d671" d="M106.4 300.37l67-147.4h40.2l-6.7 147.4z"/><path d="M159.846 153.45l36.113-42.076a13.673 13.673 0 0110.452-4.824h0c7.571 0 13.802 6.164 13.802 13.735 0 0 0 0 0 0v33.165h-60.367zM286.83 293.33h-67" stroke-linecap="round" stroke="#2d3642" stroke-width="13.4" stroke-linejoin="round" fill="none"/><path d="M273.37 233.33c0 3.685-3.015 6.7-6.7 6.7h-6.7v-13.4h6.7c3.685 0 6.7 3.015 6.7 6.7z" fill="#168c84"/></svg>